<?xml version="1.0" encoding="utf-8"?>
<!-- Generator: Adobe Illustrator 15.0.0, SVG Export Plug-In  -->
<!DOCTYPE svg PUBLIC "-//W3C//DTD SVG 1.1//EN" "http://www.w3.org/Graphics/SVG/1.1/DTD/svg11.dtd" [
	<!ENTITY ns_flows "http://ns.adobe.com/Flows/1.0/">
]>
<svg version="1.1"
	 xmlns="http://www.w3.org/2000/svg" xmlns:xlink="http://www.w3.org/1999/xlink" xmlns:a="http://ns.adobe.com/AdobeSVGViewerExtensions/3.0/"
	 x="0px" y="0px" width="37px" height="37px" viewBox="0 0 37 37" overflow="visible" enable-background="new 0 0 37 37"
	 xml:space="preserve">
<defs>
</defs>
<path fill="#373737" d="M18.607,0C8.331,0,0,8.331,0,18.607c0,9.812,7.6,17.831,17.231,18.538C9.157,35.785,3,28.779,3,20.318
	c0-9.437,7.649-17.084,17.084-17.084c9.299,0,16.85,7.435,17.064,16.683c0.029-0.435,0.065-0.867,0.065-1.31
	C37.215,8.331,28.884,0,18.607,0z"/>
<path fill="#373737" d="M27.688,18.416h-5.894c0.682-3.199,1.484-5.111,1.498-5.143c0.277-0.645-0.021-1.393-0.667-1.67
	c-0.646-0.276-1.394,0.021-1.671,0.667c-0.016,0.036-0.989,2.348-1.754,6.146h-5.821c-0.703,0-1.272,0.568-1.272,1.271
	s0.569,1.271,1.272,1.271h5.385c-0.242,1.692-0.418,3.577-0.457,5.619c-0.013,0.703,0.545,1.283,1.248,1.297
	c0.008,0,0.016,0,0.024,0c0.69,0,1.258-0.554,1.271-1.247c0.039-2.085,0.229-3.987,0.48-5.669h6.355
	c0.703,0,1.271-0.568,1.271-1.271S28.391,18.416,27.688,18.416z"/>
</svg>
