<?xml version="1.0" encoding="utf-8"?>
<!-- Generator: Adobe Illustrator 18.0.0, SVG Export Plug-In . SVG Version: 6.00 Build 0)  -->
<!DOCTYPE svg PUBLIC "-//W3C//DTD SVG 1.1//EN" "http://www.w3.org/Graphics/SVG/1.1/DTD/svg11.dtd">
<svg version="1.1" xmlns="http://www.w3.org/2000/svg" xmlns:xlink="http://www.w3.org/1999/xlink" x="0px" y="0px" width="206.1px"
	 height="59px" viewBox="0 0 206.1 59" enable-background="new 0 0 206.1 59" xml:space="preserve">
<g id="DESIGN2">
	<g>
		<g>
			<g>
				<path fill="#552670" d="M78.1,15.3c-6.5,0-10.8,4.4-10.8,10.9c0,6.5,4.4,10.9,10.8,10.9c5.1,0,9-2.8,10.1-7.2l0-0.2h-3.3l0,0.1
					c-1,2.8-3.4,4.4-6.8,4.4c-4.5,0-7.3-2.6-7.7-7.3h18.5v-0.8C88.9,19.5,84.7,15.3,78.1,15.3z M78.1,18.1c4.2,0,7.1,2.5,7.5,6.3
					H70.5C70.9,20.5,73.9,18.1,78.1,18.1z"/>
				<rect x="91.1" y="8.7" fill="#552670" width="2.9" height="27.6"/>
				<rect x="97.7" y="8.7" fill="#552670" width="2.9" height="27.6"/>
				<path fill="#552670" d="M123.6,33.6c-0.9,0-0.9-0.4-0.9-1.8v-8.9c0-2.1-0.1-3.6-1.2-5c-1.4-1.7-3.6-2.4-7.5-2.4
					c-6,0-9.3,2.4-9.6,7.2l0,0.2h2.9l0-0.1c0.2-3,2.5-4.5,7-4.5c2.5,0,5.4,0.6,5.4,3.2c0,2.1-1.4,2.3-4.8,2.7
					c-0.6,0.1-1.3,0.2-2.1,0.3c-3.4,0.5-5.7,0.9-7.2,1.9c-1.4,1.1-2.2,2.6-2.2,4.4c0,3.9,2.8,6.2,7.8,6.2c3.7,0,6.3-1,8.4-3.3
					c0.2,2.1,1,3,2.8,3c0.7,0,1.5-0.1,2.3-0.4l0.1,0v-2.6l-0.2,0.1C124.3,33.6,124,33.6,123.6,33.6z M111.5,34.1c-3,0-5-1.3-5-3.4
					c0-2.5,2.1-3,6.5-3.7c3.5-0.5,5.5-0.9,6.7-1.5V28C119.7,31.7,116.4,34.1,111.5,34.1z"/>
				<path fill="#552670" d="M140.3,8c-8.9,0-14.5,5.6-14.5,14.5c0,8.9,5.5,14.5,14.5,14.5c8.9,0,14.5-5.6,14.5-14.5
					C154.8,13.6,149.2,8,140.3,8z M140.3,34.1c-7.1,0-11.4-4.3-11.4-11.5c0-7.2,4.3-11.5,11.4-11.5c7.1,0,11.4,4.3,11.4,11.5
					C151.7,29.8,147.4,34.1,140.3,34.1z"/>
				<path fill="#552670" d="M168.3,15.4h-3.2c-5.5,0-8,2.5-8,7.8v13.3h3.3V24.9c0-4.9,1.3-6.5,5.2-6.5h2.3c4,0,5.2,1.6,5.2,6.5v11.6
					h3.3V23.2C176.3,17.9,173.7,15.4,168.3,15.4z"/>
				<path fill="#552670" d="M199.8,26.1c0-6.6-4.2-10.8-10.8-10.8c-6.5,0-10.8,4.4-10.8,10.9c0,6.5,4.4,10.9,10.8,10.9
					c5.1,0,9-2.8,10-7.2l0-0.2h-3.3l0,0.1c-1,2.8-3.4,4.4-6.8,4.4c-4.5,0-7.3-2.6-7.7-7.3h18.5V26.1z M189,18.1
					c4.2,0,7.1,2.5,7.5,6.3h-15.1C181.8,20.5,184.8,18.1,189,18.1z"/>
			</g>
		</g>
		<g>
			<path fill="#552670" d="M202.9,14.8c0.4,0,0.9,0.1,1.2,0.2c0.4,0.2,0.7,0.4,1,0.7c0.3,0.3,0.5,0.7,0.7,1.1
				c0.2,0.4,0.2,0.9,0.3,1.3c0,0.5-0.1,0.9-0.2,1.3c-0.1,0.4-0.4,0.8-0.7,1.1c-0.3,0.3-0.6,0.6-1,0.8c-0.2,0.1-0.4,0.2-0.6,0.2
				c-0.2,0-0.4,0.1-0.6,0.1c-0.4,0-0.8-0.1-1.2-0.2c-0.4-0.2-0.7-0.4-1-0.7c-0.3-0.3-0.5-0.7-0.7-1.1c-0.2-0.4-0.3-0.9-0.3-1.3
				c0-0.5,0.1-0.9,0.2-1.3c0.2-0.4,0.4-0.8,0.7-1.2c0.3-0.3,0.6-0.6,1-0.8C202.1,14.9,202.5,14.8,202.9,14.8z M205.8,18.2
				c0-0.4-0.1-0.8-0.2-1.2c-0.1-0.4-0.3-0.7-0.6-1c-0.3-0.3-0.6-0.5-0.9-0.6c-0.3-0.1-0.7-0.2-1.1-0.2c-0.4,0-0.7,0.1-1.1,0.2
				c-0.3,0.2-0.6,0.4-0.9,0.7c-0.3,0.3-0.5,0.6-0.6,1c-0.1,0.4-0.2,0.8-0.2,1.2c0,0.4,0.1,0.8,0.2,1.2c0.1,0.4,0.4,0.7,0.6,1
				c0.3,0.3,0.6,0.5,0.9,0.7c0.3,0.2,0.7,0.2,1.1,0.2c0.4,0,0.7-0.1,1.1-0.3c0.3-0.2,0.6-0.4,0.9-0.7c0.3-0.3,0.4-0.6,0.6-1
				C205.7,19,205.8,18.6,205.8,18.2z M203,16.2c0.5,0,0.9,0.1,1.1,0.2c0.2,0.2,0.4,0.4,0.4,0.8c0,0.3-0.1,0.5-0.2,0.7
				c-0.2,0.2-0.4,0.3-0.6,0.4l0.8,1.8l-0.6,0l-0.8-1.7l-0.9,0l0,1.7l-0.5,0l-0.1-4L203,16.2z M202.9,16.6l-0.7,0l0,1.4l0.7,0
				c0.4,0,0.6-0.1,0.8-0.2c0.2-0.1,0.2-0.3,0.2-0.5c0-0.3-0.1-0.4-0.3-0.6C203.6,16.7,203.3,16.6,202.9,16.6z"/>
		</g>
		<g>
			
				<linearGradient id="SVGID_1_" gradientUnits="userSpaceOnUse" x1="329.0717" y1="-291.5635" x2="272.5598" y2="-291.5635" gradientTransform="matrix(1 0 0 1 -269.2637 336.6926)">
				<stop  offset="0" style="stop-color:#936699"/>
				<stop  offset="0.1243" style="stop-color:#A17BA8;stop-opacity:0.8574"/>
				<stop  offset="0.6406" style="stop-color:#E2D9E8;stop-opacity:0.2652"/>
				<stop  offset="0.8717" style="stop-color:#FFFFFF;stop-opacity:0"/>
			</linearGradient>
			<path fill="url(#SVGID_1_)" d="M61,45.1c0,0.5-0.5,0.9-1.1,0.9H1.4c-0.6,0-1.1-0.4-1.1-0.9c0-0.5,0.5-0.9,1.1-0.9h58.5
				C60.5,44.2,61,44.6,61,45.1z"/>
		</g>
		<g>
			<path fill="#552670" d="M72.5,46.8c0,1.3-1,2.2-2.6,2.2c-1.4,0-2.4-0.9-2.4-2.3c0,0,0,0,0,0h1.1c0,0.9,0.5,1.4,1.3,1.4
				c0.8,0,1.3-0.5,1.3-1.2c0-0.7-0.5-1.2-1.3-1.2c-0.1,0-0.3,0-0.4,0v-0.9c0,0,0.1,0,0.1,0c0.1,0,0.1,0,0.2,0c0.9,0,1.3-0.3,1.3-1
				c0-0.6-0.4-1-1.1-1c-0.7,0-1.2,0.5-1.2,1.3c0,0,0,0,0,0.1h-1.1c0,0,0,0,0-0.1c0-1.4,0.9-2.2,2.3-2.2c1.4,0,2.3,0.7,2.3,1.9
				c0,0.7-0.3,1.1-0.9,1.4C72.1,45.3,72.5,45.9,72.5,46.8z"/>
			<path fill="#552670" d="M77.9,45.4c0,2.4-0.8,3.6-2.5,3.6c-1.6,0-2.4-1.2-2.4-3.6c0-2.4,0.8-3.6,2.4-3.6
				C77.1,41.8,77.9,43,77.9,45.4z M74.2,45.4c0,1.8,0.4,2.6,1.3,2.6c0.9,0,1.3-0.8,1.3-2.6c0-1.8-0.4-2.6-1.3-2.6
				C74.6,42.8,74.2,43.6,74.2,45.4z"/>
			<path fill="#552670" d="M86.7,43.4c1.2,0,1.7,0.7,1.7,2v3.4h-1.1v-3.3c0-0.8-0.3-1.1-0.9-1.1c-0.7,0-1.2,0.5-1.2,1.3v3.1h-1.1
				v-3.3c0-0.1,0-0.2,0-0.2c0-0.6-0.3-0.9-0.9-0.9c-0.7,0-1.1,0.5-1.1,1.3v3.1H81v-5.3h1.1v0.7c0.4-0.5,0.9-0.8,1.5-0.8
				c0.7,0,1.1,0.2,1.5,0.8C85.5,43.7,86,43.4,86.7,43.4z"/>
			<path fill="#552670" d="M91.9,48.9c-1.4,0-2.3-1.1-2.3-2.7c0-1.7,0.9-2.8,2.3-2.8c0.7,0,1.2,0.3,1.6,0.8v-0.7h1.1v5
				c0,1.6-0.6,2.4-2.5,2.4c-1.5,0-2.3-0.6-2.3-1.6h1.1c0,0.5,0.4,0.7,1.1,0.7c1.1,0,1.4-0.4,1.4-1.3v-0.6
				C93.1,48.6,92.6,48.9,91.9,48.9z M92.1,47.9c0.9,0,1.4-0.6,1.4-1.8c0-1.2-0.5-1.8-1.4-1.8c-0.8,0-1.3,0.6-1.3,1.8
				C90.7,47.3,91.2,47.9,92.1,47.9z"/>
			<path fill="#552670" d="M100.1,48.1c0.1,0,0.2,0,0.5,0v0.7c-0.3,0.1-0.5,0.1-0.7,0.1c-0.8,0-1.1-0.3-1.1-1.1v-3.5h-0.8v-0.7h0.8
				v-1.5h0.9v1.5h0.9v0.7h-0.9v3.2C99.6,47.9,99.7,48.1,100.1,48.1z"/>
			<path fill="#552670" d="M102.8,49c-1.1,0-1.7-0.6-1.7-1.6c0-1,0.6-1.5,1.8-1.6c0.7-0.1,1.2-0.1,1.4-0.2c0.2-0.1,0.3-0.2,0.3-0.6
				c0-0.5-0.4-0.8-1.2-0.8c-0.8,0-1.2,0.3-1.2,1h-0.8v0c0-1,0.8-1.7,2.1-1.7c1.4,0,2,0.5,2,1.6v2.6c0,0.4,0,0.5,0.3,0.5
				c0.1,0,0.1,0,0.2,0v0.7c-0.2,0.1-0.3,0.1-0.5,0.1c-0.6,0-0.9-0.3-0.9-0.8v0C104.1,48.7,103.5,49,102.8,49z M102.9,46.5
				c-0.6,0.1-0.9,0.3-0.9,0.9c0,0.5,0.3,0.8,0.9,0.8c1,0,1.6-0.5,1.6-1.3v-0.8C104.1,46.4,103.5,46.4,102.9,46.5z"/>
			<path fill="#552670" d="M106.9,41.6h0.9v2.7c0.4-0.6,1-0.9,1.7-0.9c1.4,0,2.3,1.1,2.3,2.8c0,1.7-0.9,2.8-2.3,2.8
				c-0.7,0-1.3-0.2-1.7-0.8v0.7h-0.9V41.6z M109.3,48.2c1,0,1.6-0.7,1.6-1.9c0-1.3-0.6-2.1-1.5-2.1c-1,0-1.5,0.6-1.5,2
				C107.8,47.5,108.3,48.2,109.3,48.2z"/>
			<path fill="#552670" d="M112.9,41.6h0.9v7.2h-0.9V41.6z"/>
			<path fill="#552670" d="M119.5,47.1c-0.2,1.2-1.1,1.9-2.3,1.9c-1.4,0-2.3-1-2.3-2.7c0-1.8,0.9-2.8,2.3-2.8c1.5,0,2.4,0.9,2.4,2.6
				c0,0.1,0,0.3,0,0.4h-3.8c0,1.1,0.6,1.7,1.5,1.7c0.7,0,1.2-0.4,1.3-1.1H119.5z M118.7,45.7c0-1-0.5-1.5-1.4-1.5
				c-0.9,0-1.4,0.5-1.5,1.5H118.7z"/>
			<path fill="#552670" d="M122.2,48.1c0.1,0,0.2,0,0.5,0v0.7c-0.3,0.1-0.5,0.1-0.7,0.1c-0.8,0-1.1-0.3-1.1-1.1v-3.5h-0.8v-0.7h0.8
				v-1.5h0.9v1.5h0.9v0.7h-0.9v3.2C121.7,47.9,121.8,48.1,122.2,48.1z"/>
			<path fill="#552670" d="M128.3,41.4h0.6l-2.4,8.3h-0.6L128.3,41.4z"/>
			<path fill="#552670" d="M132.7,43.5v3.2c0,0.8,0.2,1.2,1,1.2c0.8,0,1.3-0.5,1.3-1.5v-3h1.1v5.3h-1.1v-0.7
				c-0.4,0.5-0.9,0.8-1.6,0.8c-0.7,0-1.2-0.2-1.6-0.6c-0.3-0.4-0.3-0.8-0.3-1.4v-3.3H132.7z"/>
			<path fill="#552670" d="M138.6,41.6v7.2h-1.1v-7.2H138.6z"/>
			<path fill="#552670" d="M141.1,41.6v1.1H140v-1.1H141.1z M141.1,43.5v5.3H140v-5.3H141.1z"/>
			<path fill="#552670" d="M143.6,50.9h-1.1v-7.4h1.1v0.7c0.4-0.6,0.9-0.9,1.6-0.9c1.3,0,2.3,1.1,2.3,2.8c0,1.8-1,2.8-2.2,2.8
				c-0.7,0-1.3-0.3-1.6-0.8V50.9z M143.5,46.2c0,1.2,0.5,1.8,1.4,1.8c0.8,0,1.4-0.6,1.4-1.8c0-1.1-0.5-1.8-1.4-1.8
				C144,44.3,143.5,45,143.5,46.2z"/>
			<path fill="#552670" d="M151.3,44.6H151c-0.9,0-1.4,0.5-1.4,1.4v2.9h-1.1v-5.3h1.1v0.9c0.3-0.7,0.8-1,1.5-1c0,0,0.1,0,0.3,0V44.6
				z"/>
			<path fill="#552670" d="M153.2,41.6v1.1h-1.1v-1.1H153.2z M153.2,43.5v5.3h-1.1v-5.3H153.2z"/>
			<path fill="#552670" d="M157.5,45.1c0-0.5-0.4-0.8-1.1-0.8c-0.6,0-0.9,0.3-0.9,0.6c0,0.4,0.3,0.5,0.9,0.7l0.7,0.1
				c1.1,0.3,1.7,0.6,1.7,1.6c0,1.1-0.8,1.8-2.3,1.8c-1.4,0-2.2-0.7-2.2-1.9h1.1c0,0.6,0.5,1,1.2,1c0.7,0,1.1-0.3,1.1-0.7
				c0-0.4-0.3-0.5-0.8-0.6l-0.8-0.2c-1.1-0.3-1.6-0.6-1.6-1.5c0-1,0.8-1.6,2.1-1.6c1.3,0,2.2,0.7,2.2,1.7H157.5z"/>
			<path fill="#552670" d="M161,42.1v1.4h0.9v0.8H161v3.1c0,0.3,0.1,0.5,0.4,0.5c0.1,0,0.1,0,0.2,0l0.2,0v0.9
				c-0.3,0-0.6,0.1-0.8,0.1c-0.9,0-1.2-0.4-1.2-1.3v-3.2h-0.7v-0.8h0.7v-1.4H161z"/>
			<path fill="#552670" d="M164.1,49c-1.1,0-1.7-0.6-1.7-1.6c0-1.2,0.8-1.6,2.2-1.8c0.9-0.1,1.2-0.1,1.2-0.6c0-0.5-0.3-0.7-1.1-0.7
				c-0.7,0-1.1,0.3-1.1,0.8c0,0,0,0,0,0h-1.1c0,0,0-0.1,0-0.1c0-1,0.8-1.7,2.2-1.7c1.4,0,2.1,0.5,2.1,1.6v2.6c0,0.3,0,0.5,0.3,0.5
				c0.1,0,0.1,0,0.2,0v0.8c-0.2,0.1-0.4,0.1-0.6,0.1c-0.7,0-1-0.3-1-0.8C165.5,48.7,164.8,49,164.1,49z M164.3,46.5
				c-0.5,0.1-0.8,0.4-0.8,0.8c0,0.5,0.3,0.8,0.9,0.8c0.8,0,1.4-0.5,1.4-1.2v-0.7C165.4,46.4,164.8,46.4,164.3,46.5z"/>
			<path fill="#552670" d="M169.4,41.6v7.2h-1.1v-7.2H169.4z"/>
			<path fill="#552670" d="M174.3,49c-1.1,0-1.7-0.6-1.7-1.6c0-1.2,0.8-1.6,2.2-1.8c0.9-0.1,1.2-0.1,1.2-0.6c0-0.5-0.3-0.7-1.1-0.7
				c-0.7,0-1.1,0.3-1.1,0.8c0,0,0,0,0,0h-1.1c0,0,0-0.1,0-0.1c0-1,0.8-1.7,2.2-1.7c1.4,0,2.1,0.5,2.1,1.6v2.6c0,0.3,0,0.5,0.3,0.5
				c0.1,0,0.1,0,0.2,0v0.8c-0.2,0.1-0.4,0.1-0.6,0.1c-0.7,0-1-0.3-1-0.8C175.6,48.7,175,49,174.3,49z M174.5,46.5
				c-0.5,0.1-0.8,0.4-0.8,0.8c0,0.5,0.3,0.8,0.9,0.8c0.8,0,1.4-0.5,1.4-1.2v-0.7C175.5,46.4,175,46.4,174.5,46.5z"/>
			<path fill="#552670" d="M181.8,45.3c-0.1-0.6-0.5-1-1.1-1c-0.9,0-1.3,0.6-1.3,1.8c0,1.2,0.5,1.8,1.3,1.8c0.7,0,1.1-0.4,1.2-1.1
				h1.1c-0.1,1.3-1,2.1-2.4,2.1c-1.4,0-2.3-1.1-2.3-2.8c0-1.8,0.9-2.8,2.4-2.8c1.3,0,2.2,0.7,2.3,2H181.8z"/>
			<path fill="#552670" d="M184.7,46.5c0,1,0.5,1.5,1.3,1.5c0.6,0,1-0.3,1.2-0.9h1.1c-0.2,1.1-1.1,1.8-2.3,1.8c-1.5,0-2.4-1-2.4-2.8
				c0-1.7,0.9-2.8,2.5-2.8c1.5,0,2.4,1,2.4,2.7c0,0.1,0,0.2,0,0.4H184.7z M186,44.3c-0.8,0-1.2,0.5-1.3,1.3h2.5
				C187.2,44.8,186.8,44.3,186,44.3z"/>
			<path fill="#552670" d="M190.7,42.1v1.4h0.9v0.8h-0.9v3.1c0,0.3,0.1,0.5,0.4,0.5c0.1,0,0.1,0,0.2,0l0.2,0v0.9
				c-0.3,0-0.6,0.1-0.8,0.1c-0.9,0-1.2-0.4-1.2-1.3v-3.2h-0.7v-0.8h0.7v-1.4H190.7z"/>
			<path fill="#552670" d="M193.8,49c-1.1,0-1.7-0.6-1.7-1.6c0-1.2,0.8-1.6,2.2-1.8c0.9-0.1,1.2-0.1,1.2-0.6c0-0.5-0.3-0.7-1.1-0.7
				c-0.7,0-1.1,0.3-1.1,0.8c0,0,0,0,0,0h-1.1c0,0,0-0.1,0-0.1c0-1,0.8-1.7,2.2-1.7c1.4,0,2.1,0.5,2.1,1.6v2.6c0,0.3,0,0.5,0.3,0.5
				c0.1,0,0.1,0,0.2,0v0.8c-0.2,0.1-0.4,0.1-0.6,0.1c-0.7,0-1-0.3-1-0.8C195.1,48.7,194.5,49,193.8,49z M194,46.5
				c-0.5,0.1-0.8,0.4-0.8,0.8c0,0.5,0.3,0.8,0.9,0.8c0.8,0,1.4-0.5,1.4-1.2v-0.7C195,46.4,194.5,46.4,194,46.5z"/>
			<path fill="#552670" d="M199.3,42.1v1.4h0.9v0.8h-0.9v3.1c0,0.3,0.1,0.5,0.4,0.5c0.1,0,0.1,0,0.2,0l0.2,0v0.9
				c-0.3,0-0.6,0.1-0.8,0.1c-0.9,0-1.2-0.4-1.2-1.3v-3.2h-0.7v-0.8h0.7v-1.4H199.3z"/>
			<path fill="#552670" d="M202,46.5c0,1,0.5,1.5,1.3,1.5c0.6,0,1-0.3,1.2-0.9h1.1c-0.2,1.1-1.1,1.8-2.3,1.8c-1.5,0-2.4-1-2.4-2.8
				c0-1.7,0.9-2.8,2.5-2.8c1.5,0,2.4,1,2.4,2.7c0,0.1,0,0.2,0,0.4H202z M203.3,44.3c-0.8,0-1.2,0.5-1.3,1.3h2.5
				C204.5,44.8,204.1,44.3,203.3,44.3z"/>
		</g>
	</g>
</g>
<g id="Calque_1">
</g>
</svg>
